<?xml version="1.0" encoding="utf-8" standalone="no"?>
<!DOCTYPE svg PUBLIC "-//W3C//DTD SVG 1.1//EN"
  "http://www.w3.org/Graphics/SVG/1.1/DTD/svg11.dtd">
<svg xmlns:xlink="http://www.w3.org/1999/xlink" width="504pt" height="306pt" viewBox="0 0 504 306" xmlns="http://www.w3.org/2000/svg" version="1.1">
 <metadata>
  <rdf:RDF xmlns:dc="http://purl.org/dc/elements/1.1/" xmlns:cc="http://creativecommons.org/ns#" xmlns:rdf="http://www.w3.org/1999/02/22-rdf-syntax-ns#">
   <cc:Work>
    <dc:type rdf:resource="http://purl.org/dc/dcmitype/StillImage"/>
    <dc:date>2022-06-28T23:56:37.818230</dc:date>
    <dc:format>image/svg+xml</dc:format>
    <dc:creator>
     <cc:Agent>
      <dc:title>Matplotlib v3.5.2, https://matplotlib.org/</dc:title>
     </cc:Agent>
    </dc:creator>
   </cc:Work>
  </rdf:RDF>
 </metadata>
 <defs>
  <style type="text/css">*{stroke-linejoin: round; stroke-linecap: butt}</style>
 </defs>
 <g id="figure_1">
  <g id="patch_1">
   <path d="M 0 306 
L 504 306 
L 504 0 
L 0 0 
z
" style="fill: #ffffff"/>
  </g>
  <g id="axes_1">
   <g id="patch_2">
    <path d="M 100.8 253.74375 
L 436.8 253.74375 
L 436.8 244.06875 
L 100.8 244.06875 
z
" clip-path="url(#p0d0cb2da1f)" style="fill: #ff0000; stroke: #000000; stroke-linejoin: miter"/>
   </g>
   <g id="patch_3">
    <path d="M 100.8 241.65 
L 282.233967 241.65 
L 282.233967 231.975 
L 100.8 231.975 
z
" clip-path="url(#p0d0cb2da1f)" style="fill: #008000; stroke: #000000; stroke-linejoin: miter"/>
   </g>
   <g id="patch_4">
    <path d="M 100.8 229.55625 
L 290.447981 229.55625 
L 290.447981 219.88125 
L 100.8 219.88125 
z
" clip-path="url(#p0d0cb2da1f)" style="fill: #008000; stroke: #000000; stroke-linejoin: miter"/>
   </g>
   <g id="patch_5">
    <path d="M 100.8 217.4625 
L 301.226367 217.4625 
L 301.226367 207.7875 
L 100.8 207.7875 
z
" clip-path="url(#p0d0cb2da1f)" style="fill: #008000; stroke: #000000; stroke-linejoin: miter"/>
   </g>
   <g id="patch_6">
    <path d="M 100.8 205.36875 
L 302.901142 205.36875 
L 302.901142 195.69375 
L 100.8 195.69375 
z
" clip-path="url(#p0d0cb2da1f)" style="fill: #008000; stroke: #000000; stroke-linejoin: miter"/>
   </g>
   <g id="patch_7">
    <path d="M 100.8 193.275 
L 309.374705 193.275 
L 309.374705 183.6 
L 100.8 183.6 
z
" clip-path="url(#p0d0cb2da1f)" style="fill: #008000; stroke: #000000; stroke-linejoin: miter"/>
   </g>
   <g id="patch_8">
    <path d="M 100.8 181.18125 
L 316.761078 181.18125 
L 316.761078 171.50625 
L 100.8 171.50625 
z
" clip-path="url(#p0d0cb2da1f)" style="fill: #008000; stroke: #000000; stroke-linejoin: miter"/>
   </g>
   <g id="patch_9">
    <path d="M 100.8 169.0875 
L 318.219734 169.0875 
L 318.219734 159.4125 
L 100.8 159.4125 
z
" clip-path="url(#p0d0cb2da1f)" style="fill: #008000; stroke: #000000; stroke-linejoin: miter"/>
   </g>
   <g id="patch_10">
    <path d="M 100.8 156.99375 
L 319.232078 156.99375 
L 319.232078 147.31875 
L 100.8 147.31875 
z
" clip-path="url(#p0d0cb2da1f)" style="fill: #008000; stroke: #000000; stroke-linejoin: miter"/>
   </g>
   <g id="patch_11">
    <path d="M 100.8 144.9 
L 319.609149 144.9 
L 319.609149 135.225 
L 100.8 135.225 
z
" clip-path="url(#p0d0cb2da1f)" style="fill: #008000; stroke: #000000; stroke-linejoin: miter"/>
   </g>
   <g id="patch_12">
    <path d="M 100.8 132.80625 
L 323.185618 132.80625 
L 323.185618 123.13125 
L 100.8 123.13125 
z
" clip-path="url(#p0d0cb2da1f)" style="fill: #008000; stroke: #000000; stroke-linejoin: miter"/>
   </g>
   <g id="patch_13">
    <path d="M 100.8 120.7125 
L 330.107536 120.7125 
L 330.107536 111.0375 
L 100.8 111.0375 
z
" clip-path="url(#p0d0cb2da1f)" style="fill: #008000; stroke: #000000; stroke-linejoin: miter"/>
   </g>
   <g id="patch_14">
    <path d="M 100.8 108.61875 
L 404.141626 108.61875 
L 404.141626 98.94375 
L 100.8 98.94375 
z
" clip-path="url(#p0d0cb2da1f)" style="fill: #008000; stroke: #000000; stroke-linejoin: miter"/>
   </g>
   <g id="patch_15">
    <path d="M 100.8 96.525 
L 305.816936 96.525 
L 305.816936 86.85 
L 100.8 86.85 
z
" clip-path="url(#p0d0cb2da1f)" style="fill: #0000ff; stroke: #000000; stroke-linejoin: miter"/>
   </g>
   <g id="patch_16">
    <path d="M 100.8 84.43125 
L 352.998617 84.43125 
L 352.998617 74.75625 
L 100.8 74.75625 
z
" clip-path="url(#p0d0cb2da1f)" style="fill: #0000ff; stroke: #000000; stroke-linejoin: miter"/>
   </g>
   <g id="matplotlib.axis_1">
    <g id="xtick_1">
     <g id="line2d_1">
      <path d="M 100.8 261 
L 100.8 67.5 
" clip-path="url(#p0d0cb2da1f)" style="fill: none; stroke: #000000; stroke-width: 0.8; stroke-linecap: square"/>
     </g>
     <g id="line2d_2">
      <defs>
       <path id="m68e377bc84" d="M 0 0 
L 0 3.5 
" style="stroke: #000000; stroke-width: 0.8"/>
      </defs>
      <g>
       <use xlink:href="#m68e377bc84" x="100.8" y="261" style="stroke: #000000; stroke-width: 0.8"/>
      </g>
     </g>
     <g id="text_1">
      <!-- 0 -->
      <g transform="translate(97.61875 275.598437)scale(0.1 -0.1)">
       <defs>
        <path id="DejaVuSans-30" d="M 2034 4250 
Q 1547 4250 1301 3770 
Q 1056 3291 1056 2328 
Q 1056 1369 1301 889 
Q 1547 409 2034 409 
Q 2525 409 2770 889 
Q 3016 1369 3016 2328 
Q 3016 3291 2770 3770 
Q 2525 4250 2034 4250 
z
M 2034 4750 
Q 2819 4750 3233 4129 
Q 3647 3509 3647 2328 
Q 3647 1150 3233 529 
Q 2819 -91 2034 -91 
Q 1250 -91 836 529 
Q 422 1150 422 2328 
Q 422 3509 836 4129 
Q 1250 4750 2034 4750 
z
" transform="scale(0.015625)"/>
       </defs>
       <use xlink:href="#DejaVuSans-30"/>
      </g>
     </g>
    </g>
    <g id="xtick_2">
     <g id="line2d_3">
      <path d="M 168.371043 261 
L 168.371043 67.5 
" clip-path="url(#p0d0cb2da1f)" style="fill: none; stroke: #000000; stroke-width: 0.8; stroke-linecap: square"/>
     </g>
     <g id="line2d_4">
      <g>
       <use xlink:href="#m68e377bc84" x="168.371043" y="261" style="stroke: #000000; stroke-width: 0.8"/>
      </g>
     </g>
     <g id="text_2">
      <!-- 1 -->
      <g transform="translate(165.189793 275.598437)scale(0.1 -0.1)">
       <defs>
        <path id="DejaVuSans-31" d="M 794 531 
L 1825 531 
L 1825 4091 
L 703 3866 
L 703 4441 
L 1819 4666 
L 2450 4666 
L 2450 531 
L 3481 531 
L 3481 0 
L 794 0 
L 794 531 
z
" transform="scale(0.015625)"/>
       </defs>
       <use xlink:href="#DejaVuSans-31"/>
      </g>
     </g>
    </g>
    <g id="xtick_3">
     <g id="line2d_5">
      <path d="M 235.942086 261 
L 235.942086 67.5 
" clip-path="url(#p0d0cb2da1f)" style="fill: none; stroke: #000000; stroke-width: 0.8; stroke-linecap: square"/>
     </g>
     <g id="line2d_6">
      <g>
       <use xlink:href="#m68e377bc84" x="235.942086" y="261" style="stroke: #000000; stroke-width: 0.8"/>
      </g>
     </g>
     <g id="text_3">
      <!-- 2 -->
      <g transform="translate(232.760836 275.598437)scale(0.1 -0.1)">
       <defs>
        <path id="DejaVuSans-32" d="M 1228 531 
L 3431 531 
L 3431 0 
L 469 0 
L 469 531 
Q 828 903 1448 1529 
Q 2069 2156 2228 2338 
Q 2531 2678 2651 2914 
Q 2772 3150 2772 3378 
Q 2772 3750 2511 3984 
Q 2250 4219 1831 4219 
Q 1534 4219 1204 4116 
Q 875 4013 500 3803 
L 500 4441 
Q 881 4594 1212 4672 
Q 1544 4750 1819 4750 
Q 2544 4750 2975 4387 
Q 3406 4025 3406 3419 
Q 3406 3131 3298 2873 
Q 3191 2616 2906 2266 
Q 2828 2175 2409 1742 
Q 1991 1309 1228 531 
z
" transform="scale(0.015625)"/>
       </defs>
       <use xlink:href="#DejaVuSans-32"/>
      </g>
     </g>
    </g>
    <g id="xtick_4">
     <g id="line2d_7">
      <path d="M 303.513129 261 
L 303.513129 67.5 
" clip-path="url(#p0d0cb2da1f)" style="fill: none; stroke: #000000; stroke-width: 0.8; stroke-linecap: square"/>
     </g>
     <g id="line2d_8">
      <g>
       <use xlink:href="#m68e377bc84" x="303.513129" y="261" style="stroke: #000000; stroke-width: 0.8"/>
      </g>
     </g>
     <g id="text_4">
      <!-- 3 -->
      <g transform="translate(300.331879 275.598437)scale(0.1 -0.1)">
       <defs>
        <path id="DejaVuSans-33" d="M 2597 2516 
Q 3050 2419 3304 2112 
Q 3559 1806 3559 1356 
Q 3559 666 3084 287 
Q 2609 -91 1734 -91 
Q 1441 -91 1130 -33 
Q 819 25 488 141 
L 488 750 
Q 750 597 1062 519 
Q 1375 441 1716 441 
Q 2309 441 2620 675 
Q 2931 909 2931 1356 
Q 2931 1769 2642 2001 
Q 2353 2234 1838 2234 
L 1294 2234 
L 1294 2753 
L 1863 2753 
Q 2328 2753 2575 2939 
Q 2822 3125 2822 3475 
Q 2822 3834 2567 4026 
Q 2313 4219 1838 4219 
Q 1578 4219 1281 4162 
Q 984 4106 628 3988 
L 628 4550 
Q 988 4650 1302 4700 
Q 1616 4750 1894 4750 
Q 2613 4750 3031 4423 
Q 3450 4097 3450 3541 
Q 3450 3153 3228 2886 
Q 3006 2619 2597 2516 
z
" transform="scale(0.015625)"/>
       </defs>
       <use xlink:href="#DejaVuSans-33"/>
      </g>
     </g>
    </g>
    <g id="xtick_5">
     <g id="line2d_9">
      <path d="M 371.084172 261 
L 371.084172 67.5 
" clip-path="url(#p0d0cb2da1f)" style="fill: none; stroke: #000000; stroke-width: 0.8; stroke-linecap: square"/>
     </g>
     <g id="line2d_10">
      <g>
       <use xlink:href="#m68e377bc84" x="371.084172" y="261" style="stroke: #000000; stroke-width: 0.8"/>
      </g>
     </g>
     <g id="text_5">
      <!-- 4 -->
      <g transform="translate(367.902922 275.598437)scale(0.1 -0.1)">
       <defs>
        <path id="DejaVuSans-34" d="M 2419 4116 
L 825 1625 
L 2419 1625 
L 2419 4116 
z
M 2253 4666 
L 3047 4666 
L 3047 1625 
L 3713 1625 
L 3713 1100 
L 3047 1100 
L 3047 0 
L 2419 0 
L 2419 1100 
L 313 1100 
L 313 1709 
L 2253 4666 
z
" transform="scale(0.015625)"/>
       </defs>
       <use xlink:href="#DejaVuSans-34"/>
      </g>
     </g>
    </g>
    <g id="xtick_6">
     <g id="line2d_11">
      <path d="M 438.655215 261 
L 438.655215 67.5 
" clip-path="url(#p0d0cb2da1f)" style="fill: none; stroke: #000000; stroke-width: 0.8; stroke-linecap: square"/>
     </g>
     <g id="line2d_12">
      <g>
       <use xlink:href="#m68e377bc84" x="438.655215" y="261" style="stroke: #000000; stroke-width: 0.8"/>
      </g>
     </g>
     <g id="text_6">
      <!-- 5 -->
      <g transform="translate(435.473965 275.598437)scale(0.1 -0.1)">
       <defs>
        <path id="DejaVuSans-35" d="M 691 4666 
L 3169 4666 
L 3169 4134 
L 1269 4134 
L 1269 2991 
Q 1406 3038 1543 3061 
Q 1681 3084 1819 3084 
Q 2600 3084 3056 2656 
Q 3513 2228 3513 1497 
Q 3513 744 3044 326 
Q 2575 -91 1722 -91 
Q 1428 -91 1123 -41 
Q 819 9 494 109 
L 494 744 
Q 775 591 1075 516 
Q 1375 441 1709 441 
Q 2250 441 2565 725 
Q 2881 1009 2881 1497 
Q 2881 1984 2565 2268 
Q 2250 2553 1709 2553 
Q 1456 2553 1204 2497 
Q 953 2441 691 2322 
L 691 4666 
z
" transform="scale(0.015625)"/>
       </defs>
       <use xlink:href="#DejaVuSans-35"/>
      </g>
     </g>
    </g>
    <g id="text_7">
     <!-- LDA SCORE (log 10) -->
     <g transform="translate(227.342187 289.276563)scale(0.1 -0.1)">
      <defs>
       <path id="DejaVuSans-4c" d="M 628 4666 
L 1259 4666 
L 1259 531 
L 3531 531 
L 3531 0 
L 628 0 
L 628 4666 
z
" transform="scale(0.015625)"/>
       <path id="DejaVuSans-44" d="M 1259 4147 
L 1259 519 
L 2022 519 
Q 2988 519 3436 956 
Q 3884 1394 3884 2338 
Q 3884 3275 3436 3711 
Q 2988 4147 2022 4147 
L 1259 4147 
z
M 628 4666 
L 1925 4666 
Q 3281 4666 3915 4102 
Q 4550 3538 4550 2338 
Q 4550 1131 3912 565 
Q 3275 0 1925 0 
L 628 0 
L 628 4666 
z
" transform="scale(0.015625)"/>
       <path id="DejaVuSans-41" d="M 2188 4044 
L 1331 1722 
L 3047 1722 
L 2188 4044 
z
M 1831 4666 
L 2547 4666 
L 4325 0 
L 3669 0 
L 3244 1197 
L 1141 1197 
L 716 0 
L 50 0 
L 1831 4666 
z
" transform="scale(0.015625)"/>
       <path id="DejaVuSans-20" transform="scale(0.015625)"/>
       <path id="DejaVuSans-53" d="M 3425 4513 
L 3425 3897 
Q 3066 4069 2747 4153 
Q 2428 4238 2131 4238 
Q 1616 4238 1336 4038 
Q 1056 3838 1056 3469 
Q 1056 3159 1242 3001 
Q 1428 2844 1947 2747 
L 2328 2669 
Q 3034 2534 3370 2195 
Q 3706 1856 3706 1288 
Q 3706 609 3251 259 
Q 2797 -91 1919 -91 
Q 1588 -91 1214 -16 
Q 841 59 441 206 
L 441 856 
Q 825 641 1194 531 
Q 1563 422 1919 422 
Q 2459 422 2753 634 
Q 3047 847 3047 1241 
Q 3047 1584 2836 1778 
Q 2625 1972 2144 2069 
L 1759 2144 
Q 1053 2284 737 2584 
Q 422 2884 422 3419 
Q 422 4038 858 4394 
Q 1294 4750 2059 4750 
Q 2388 4750 2728 4690 
Q 3069 4631 3425 4513 
z
" transform="scale(0.015625)"/>
       <path id="DejaVuSans-43" d="M 4122 4306 
L 4122 3641 
Q 3803 3938 3442 4084 
Q 3081 4231 2675 4231 
Q 1875 4231 1450 3742 
Q 1025 3253 1025 2328 
Q 1025 1406 1450 917 
Q 1875 428 2675 428 
Q 3081 428 3442 575 
Q 3803 722 4122 1019 
L 4122 359 
Q 3791 134 3420 21 
Q 3050 -91 2638 -91 
Q 1578 -91 968 557 
Q 359 1206 359 2328 
Q 359 3453 968 4101 
Q 1578 4750 2638 4750 
Q 3056 4750 3426 4639 
Q 3797 4528 4122 4306 
z
" transform="scale(0.015625)"/>
       <path id="DejaVuSans-4f" d="M 2522 4238 
Q 1834 4238 1429 3725 
Q 1025 3213 1025 2328 
Q 1025 1447 1429 934 
Q 1834 422 2522 422 
Q 3209 422 3611 934 
Q 4013 1447 4013 2328 
Q 4013 3213 3611 3725 
Q 3209 4238 2522 4238 
z
M 2522 4750 
Q 3503 4750 4090 4092 
Q 4678 3434 4678 2328 
Q 4678 1225 4090 567 
Q 3503 -91 2522 -91 
Q 1538 -91 948 565 
Q 359 1222 359 2328 
Q 359 3434 948 4092 
Q 1538 4750 2522 4750 
z
" transform="scale(0.015625)"/>
       <path id="DejaVuSans-52" d="M 2841 2188 
Q 3044 2119 3236 1894 
Q 3428 1669 3622 1275 
L 4263 0 
L 3584 0 
L 2988 1197 
Q 2756 1666 2539 1819 
Q 2322 1972 1947 1972 
L 1259 1972 
L 1259 0 
L 628 0 
L 628 4666 
L 2053 4666 
Q 2853 4666 3247 4331 
Q 3641 3997 3641 3322 
Q 3641 2881 3436 2590 
Q 3231 2300 2841 2188 
z
M 1259 4147 
L 1259 2491 
L 2053 2491 
Q 2509 2491 2742 2702 
Q 2975 2913 2975 3322 
Q 2975 3731 2742 3939 
Q 2509 4147 2053 4147 
L 1259 4147 
z
" transform="scale(0.015625)"/>
       <path id="DejaVuSans-45" d="M 628 4666 
L 3578 4666 
L 3578 4134 
L 1259 4134 
L 1259 2753 
L 3481 2753 
L 3481 2222 
L 1259 2222 
L 1259 531 
L 3634 531 
L 3634 0 
L 628 0 
L 628 4666 
z
" transform="scale(0.015625)"/>
       <path id="DejaVuSans-28" d="M 1984 4856 
Q 1566 4138 1362 3434 
Q 1159 2731 1159 2009 
Q 1159 1288 1364 580 
Q 1569 -128 1984 -844 
L 1484 -844 
Q 1016 -109 783 600 
Q 550 1309 550 2009 
Q 550 2706 781 3412 
Q 1013 4119 1484 4856 
L 1984 4856 
z
" transform="scale(0.015625)"/>
       <path id="DejaVuSans-6c" d="M 603 4863 
L 1178 4863 
L 1178 0 
L 603 0 
L 603 4863 
z
" transform="scale(0.015625)"/>
       <path id="DejaVuSans-6f" d="M 1959 3097 
Q 1497 3097 1228 2736 
Q 959 2375 959 1747 
Q 959 1119 1226 758 
Q 1494 397 1959 397 
Q 2419 397 2687 759 
Q 2956 1122 2956 1747 
Q 2956 2369 2687 2733 
Q 2419 3097 1959 3097 
z
M 1959 3584 
Q 2709 3584 3137 3096 
Q 3566 2609 3566 1747 
Q 3566 888 3137 398 
Q 2709 -91 1959 -91 
Q 1206 -91 779 398 
Q 353 888 353 1747 
Q 353 2609 779 3096 
Q 1206 3584 1959 3584 
z
" transform="scale(0.015625)"/>
       <path id="DejaVuSans-67" d="M 2906 1791 
Q 2906 2416 2648 2759 
Q 2391 3103 1925 3103 
Q 1463 3103 1205 2759 
Q 947 2416 947 1791 
Q 947 1169 1205 825 
Q 1463 481 1925 481 
Q 2391 481 2648 825 
Q 2906 1169 2906 1791 
z
M 3481 434 
Q 3481 -459 3084 -895 
Q 2688 -1331 1869 -1331 
Q 1566 -1331 1297 -1286 
Q 1028 -1241 775 -1147 
L 775 -588 
Q 1028 -725 1275 -790 
Q 1522 -856 1778 -856 
Q 2344 -856 2625 -561 
Q 2906 -266 2906 331 
L 2906 616 
Q 2728 306 2450 153 
Q 2172 0 1784 0 
Q 1141 0 747 490 
Q 353 981 353 1791 
Q 353 2603 747 3093 
Q 1141 3584 1784 3584 
Q 2172 3584 2450 3431 
Q 2728 3278 2906 2969 
L 2906 3500 
L 3481 3500 
L 3481 434 
z
" transform="scale(0.015625)"/>
       <path id="DejaVuSans-29" d="M 513 4856 
L 1013 4856 
Q 1481 4119 1714 3412 
Q 1947 2706 1947 2009 
Q 1947 1309 1714 600 
Q 1481 -109 1013 -844 
L 513 -844 
Q 928 -128 1133 580 
Q 1338 1288 1338 2009 
Q 1338 2731 1133 3434 
Q 928 4138 513 4856 
z
" transform="scale(0.015625)"/>
      </defs>
      <use xlink:href="#DejaVuSans-4c"/>
      <use xlink:href="#DejaVuSans-44" x="55.712891"/>
      <use xlink:href="#DejaVuSans-41" x="130.964844"/>
      <use xlink:href="#DejaVuSans-20" x="199.373047"/>
      <use xlink:href="#DejaVuSans-53" x="231.160156"/>
      <use xlink:href="#DejaVuSans-43" x="294.636719"/>
      <use xlink:href="#DejaVuSans-4f" x="364.460938"/>
      <use xlink:href="#DejaVuSans-52" x="443.171875"/>
      <use xlink:href="#DejaVuSans-45" x="512.654297"/>
      <use xlink:href="#DejaVuSans-20" x="575.837891"/>
      <use xlink:href="#DejaVuSans-28" x="607.625"/>
      <use xlink:href="#DejaVuSans-6c" x="646.638672"/>
      <use xlink:href="#DejaVuSans-6f" x="674.421875"/>
      <use xlink:href="#DejaVuSans-67" x="735.603516"/>
      <use xlink:href="#DejaVuSans-20" x="799.080078"/>
      <use xlink:href="#DejaVuSans-31" x="830.867188"/>
      <use xlink:href="#DejaVuSans-30" x="894.490234"/>
      <use xlink:href="#DejaVuSans-29" x="958.113281"/>
     </g>
    </g>
   </g>
   <g id="matplotlib.axis_2"/>
   <g id="text_8">
    <!-- uvig_529021 -->
    <g transform="translate(47.209531 252.534375)scale(0.07 -0.07)">
     <defs>
      <path id="DejaVuSans-75" d="M 544 1381 
L 544 3500 
L 1119 3500 
L 1119 1403 
Q 1119 906 1312 657 
Q 1506 409 1894 409 
Q 2359 409 2629 706 
Q 2900 1003 2900 1516 
L 2900 3500 
L 3475 3500 
L 3475 0 
L 2900 0 
L 2900 538 
Q 2691 219 2414 64 
Q 2138 -91 1772 -91 
Q 1169 -91 856 284 
Q 544 659 544 1381 
z
M 1991 3584 
L 1991 3584 
z
" transform="scale(0.015625)"/>
      <path id="DejaVuSans-76" d="M 191 3500 
L 800 3500 
L 1894 563 
L 2988 3500 
L 3597 3500 
L 2284 0 
L 1503 0 
L 191 3500 
z
" transform="scale(0.015625)"/>
      <path id="DejaVuSans-69" d="M 603 3500 
L 1178 3500 
L 1178 0 
L 603 0 
L 603 3500 
z
M 603 4863 
L 1178 4863 
L 1178 4134 
L 603 4134 
L 603 4863 
z
" transform="scale(0.015625)"/>
      <path id="DejaVuSans-5f" d="M 3263 -1063 
L 3263 -1509 
L -63 -1509 
L -63 -1063 
L 3263 -1063 
z
" transform="scale(0.015625)"/>
      <path id="DejaVuSans-39" d="M 703 97 
L 703 672 
Q 941 559 1184 500 
Q 1428 441 1663 441 
Q 2288 441 2617 861 
Q 2947 1281 2994 2138 
Q 2813 1869 2534 1725 
Q 2256 1581 1919 1581 
Q 1219 1581 811 2004 
Q 403 2428 403 3163 
Q 403 3881 828 4315 
Q 1253 4750 1959 4750 
Q 2769 4750 3195 4129 
Q 3622 3509 3622 2328 
Q 3622 1225 3098 567 
Q 2575 -91 1691 -91 
Q 1453 -91 1209 -44 
Q 966 3 703 97 
z
M 1959 2075 
Q 2384 2075 2632 2365 
Q 2881 2656 2881 3163 
Q 2881 3666 2632 3958 
Q 2384 4250 1959 4250 
Q 1534 4250 1286 3958 
Q 1038 3666 1038 3163 
Q 1038 2656 1286 2365 
Q 1534 2075 1959 2075 
z
" transform="scale(0.015625)"/>
     </defs>
     <use xlink:href="#DejaVuSans-75"/>
     <use xlink:href="#DejaVuSans-76" x="63.378906"/>
     <use xlink:href="#DejaVuSans-69" x="122.558594"/>
     <use xlink:href="#DejaVuSans-67" x="150.341797"/>
     <use xlink:href="#DejaVuSans-5f" x="213.818359"/>
     <use xlink:href="#DejaVuSans-35" x="263.818359"/>
     <use xlink:href="#DejaVuSans-32" x="327.441406"/>
     <use xlink:href="#DejaVuSans-39" x="391.064453"/>
     <use xlink:href="#DejaVuSans-30" x="454.6875"/>
     <use xlink:href="#DejaVuSans-32" x="518.310547"/>
     <use xlink:href="#DejaVuSans-31" x="581.933594"/>
    </g>
   </g>
   <g id="text_9">
    <!-- uvig_280979 -->
    <g transform="translate(47.209531 240.440625)scale(0.07 -0.07)">
     <defs>
      <path id="DejaVuSans-38" d="M 2034 2216 
Q 1584 2216 1326 1975 
Q 1069 1734 1069 1313 
Q 1069 891 1326 650 
Q 1584 409 2034 409 
Q 2484 409 2743 651 
Q 3003 894 3003 1313 
Q 3003 1734 2745 1975 
Q 2488 2216 2034 2216 
z
M 1403 2484 
Q 997 2584 770 2862 
Q 544 3141 544 3541 
Q 544 4100 942 4425 
Q 1341 4750 2034 4750 
Q 2731 4750 3128 4425 
Q 3525 4100 3525 3541 
Q 3525 3141 3298 2862 
Q 3072 2584 2669 2484 
Q 3125 2378 3379 2068 
Q 3634 1759 3634 1313 
Q 3634 634 3220 271 
Q 2806 -91 2034 -91 
Q 1263 -91 848 271 
Q 434 634 434 1313 
Q 434 1759 690 2068 
Q 947 2378 1403 2484 
z
M 1172 3481 
Q 1172 3119 1398 2916 
Q 1625 2713 2034 2713 
Q 2441 2713 2670 2916 
Q 2900 3119 2900 3481 
Q 2900 3844 2670 4047 
Q 2441 4250 2034 4250 
Q 1625 4250 1398 4047 
Q 1172 3844 1172 3481 
z
" transform="scale(0.015625)"/>
      <path id="DejaVuSans-37" d="M 525 4666 
L 3525 4666 
L 3525 4397 
L 1831 0 
L 1172 0 
L 2766 4134 
L 525 4134 
L 525 4666 
z
" transform="scale(0.015625)"/>
     </defs>
     <use xlink:href="#DejaVuSans-75"/>
     <use xlink:href="#DejaVuSans-76" x="63.378906"/>
     <use xlink:href="#DejaVuSans-69" x="122.558594"/>
     <use xlink:href="#DejaVuSans-67" x="150.341797"/>
     <use xlink:href="#DejaVuSans-5f" x="213.818359"/>
     <use xlink:href="#DejaVuSans-32" x="263.818359"/>
     <use xlink:href="#DejaVuSans-38" x="327.441406"/>
     <use xlink:href="#DejaVuSans-30" x="391.064453"/>
     <use xlink:href="#DejaVuSans-39" x="454.6875"/>
     <use xlink:href="#DejaVuSans-37" x="518.310547"/>
     <use xlink:href="#DejaVuSans-39" x="581.933594"/>
    </g>
   </g>
   <g id="text_10">
    <!-- uvig_588944 -->
    <g transform="translate(47.209531 228.346875)scale(0.07 -0.07)">
     <use xlink:href="#DejaVuSans-75"/>
     <use xlink:href="#DejaVuSans-76" x="63.378906"/>
     <use xlink:href="#DejaVuSans-69" x="122.558594"/>
     <use xlink:href="#DejaVuSans-67" x="150.341797"/>
     <use xlink:href="#DejaVuSans-5f" x="213.818359"/>
     <use xlink:href="#DejaVuSans-35" x="263.818359"/>
     <use xlink:href="#DejaVuSans-38" x="327.441406"/>
     <use xlink:href="#DejaVuSans-38" x="391.064453"/>
     <use xlink:href="#DejaVuSans-39" x="454.6875"/>
     <use xlink:href="#DejaVuSans-34" x="518.310547"/>
     <use xlink:href="#DejaVuSans-34" x="581.933594"/>
    </g>
   </g>
   <g id="text_11">
    <!-- uvig_514703 -->
    <g transform="translate(47.209531 216.253125)scale(0.07 -0.07)">
     <use xlink:href="#DejaVuSans-75"/>
     <use xlink:href="#DejaVuSans-76" x="63.378906"/>
     <use xlink:href="#DejaVuSans-69" x="122.558594"/>
     <use xlink:href="#DejaVuSans-67" x="150.341797"/>
     <use xlink:href="#DejaVuSans-5f" x="213.818359"/>
     <use xlink:href="#DejaVuSans-35" x="263.818359"/>
     <use xlink:href="#DejaVuSans-31" x="327.441406"/>
     <use xlink:href="#DejaVuSans-34" x="391.064453"/>
     <use xlink:href="#DejaVuSans-37" x="454.6875"/>
     <use xlink:href="#DejaVuSans-30" x="518.310547"/>
     <use xlink:href="#DejaVuSans-33" x="581.933594"/>
    </g>
   </g>
   <g id="text_12">
    <!-- uvig_194675 -->
    <g transform="translate(47.209531 204.159375)scale(0.07 -0.07)">
     <defs>
      <path id="DejaVuSans-36" d="M 2113 2584 
Q 1688 2584 1439 2293 
Q 1191 2003 1191 1497 
Q 1191 994 1439 701 
Q 1688 409 2113 409 
Q 2538 409 2786 701 
Q 3034 994 3034 1497 
Q 3034 2003 2786 2293 
Q 2538 2584 2113 2584 
z
M 3366 4563 
L 3366 3988 
Q 3128 4100 2886 4159 
Q 2644 4219 2406 4219 
Q 1781 4219 1451 3797 
Q 1122 3375 1075 2522 
Q 1259 2794 1537 2939 
Q 1816 3084 2150 3084 
Q 2853 3084 3261 2657 
Q 3669 2231 3669 1497 
Q 3669 778 3244 343 
Q 2819 -91 2113 -91 
Q 1303 -91 875 529 
Q 447 1150 447 2328 
Q 447 3434 972 4092 
Q 1497 4750 2381 4750 
Q 2619 4750 2861 4703 
Q 3103 4656 3366 4563 
z
" transform="scale(0.015625)"/>
     </defs>
     <use xlink:href="#DejaVuSans-75"/>
     <use xlink:href="#DejaVuSans-76" x="63.378906"/>
     <use xlink:href="#DejaVuSans-69" x="122.558594"/>
     <use xlink:href="#DejaVuSans-67" x="150.341797"/>
     <use xlink:href="#DejaVuSans-5f" x="213.818359"/>
     <use xlink:href="#DejaVuSans-31" x="263.818359"/>
     <use xlink:href="#DejaVuSans-39" x="327.441406"/>
     <use xlink:href="#DejaVuSans-34" x="391.064453"/>
     <use xlink:href="#DejaVuSans-36" x="454.6875"/>
     <use xlink:href="#DejaVuSans-37" x="518.310547"/>
     <use xlink:href="#DejaVuSans-35" x="581.933594"/>
    </g>
   </g>
   <g id="text_13">
    <!-- uvig_418142 -->
    <g transform="translate(47.209531 192.065625)scale(0.07 -0.07)">
     <use xlink:href="#DejaVuSans-75"/>
     <use xlink:href="#DejaVuSans-76" x="63.378906"/>
     <use xlink:href="#DejaVuSans-69" x="122.558594"/>
     <use xlink:href="#DejaVuSans-67" x="150.341797"/>
     <use xlink:href="#DejaVuSans-5f" x="213.818359"/>
     <use xlink:href="#DejaVuSans-34" x="263.818359"/>
     <use xlink:href="#DejaVuSans-31" x="327.441406"/>
     <use xlink:href="#DejaVuSans-38" x="391.064453"/>
     <use xlink:href="#DejaVuSans-31" x="454.6875"/>
     <use xlink:href="#DejaVuSans-34" x="518.310547"/>
     <use xlink:href="#DejaVuSans-32" x="581.933594"/>
    </g>
   </g>
   <g id="text_14">
    <!-- uvig_177481 -->
    <g transform="translate(47.209531 179.971875)scale(0.07 -0.07)">
     <use xlink:href="#DejaVuSans-75"/>
     <use xlink:href="#DejaVuSans-76" x="63.378906"/>
     <use xlink:href="#DejaVuSans-69" x="122.558594"/>
     <use xlink:href="#DejaVuSans-67" x="150.341797"/>
     <use xlink:href="#DejaVuSans-5f" x="213.818359"/>
     <use xlink:href="#DejaVuSans-31" x="263.818359"/>
     <use xlink:href="#DejaVuSans-37" x="327.441406"/>
     <use xlink:href="#DejaVuSans-37" x="391.064453"/>
     <use xlink:href="#DejaVuSans-34" x="454.6875"/>
     <use xlink:href="#DejaVuSans-38" x="518.310547"/>
     <use xlink:href="#DejaVuSans-31" x="581.933594"/>
    </g>
   </g>
   <g id="text_15">
    <!-- uvig_213354 -->
    <g transform="translate(47.209531 167.878125)scale(0.07 -0.07)">
     <use xlink:href="#DejaVuSans-75"/>
     <use xlink:href="#DejaVuSans-76" x="63.378906"/>
     <use xlink:href="#DejaVuSans-69" x="122.558594"/>
     <use xlink:href="#DejaVuSans-67" x="150.341797"/>
     <use xlink:href="#DejaVuSans-5f" x="213.818359"/>
     <use xlink:href="#DejaVuSans-32" x="263.818359"/>
     <use xlink:href="#DejaVuSans-31" x="327.441406"/>
     <use xlink:href="#DejaVuSans-33" x="391.064453"/>
     <use xlink:href="#DejaVuSans-33" x="454.6875"/>
     <use xlink:href="#DejaVuSans-35" x="518.310547"/>
     <use xlink:href="#DejaVuSans-34" x="581.933594"/>
    </g>
   </g>
   <g id="text_16">
    <!-- uvig_327352 -->
    <g transform="translate(47.209531 155.784375)scale(0.07 -0.07)">
     <use xlink:href="#DejaVuSans-75"/>
     <use xlink:href="#DejaVuSans-76" x="63.378906"/>
     <use xlink:href="#DejaVuSans-69" x="122.558594"/>
     <use xlink:href="#DejaVuSans-67" x="150.341797"/>
     <use xlink:href="#DejaVuSans-5f" x="213.818359"/>
     <use xlink:href="#DejaVuSans-33" x="263.818359"/>
     <use xlink:href="#DejaVuSans-32" x="327.441406"/>
     <use xlink:href="#DejaVuSans-37" x="391.064453"/>
     <use xlink:href="#DejaVuSans-33" x="454.6875"/>
     <use xlink:href="#DejaVuSans-35" x="518.310547"/>
     <use xlink:href="#DejaVuSans-32" x="581.933594"/>
    </g>
   </g>
   <g id="text_17">
    <!-- uvig_296212 -->
    <g transform="translate(47.209531 143.690625)scale(0.07 -0.07)">
     <use xlink:href="#DejaVuSans-75"/>
     <use xlink:href="#DejaVuSans-76" x="63.378906"/>
     <use xlink:href="#DejaVuSans-69" x="122.558594"/>
     <use xlink:href="#DejaVuSans-67" x="150.341797"/>
     <use xlink:href="#DejaVuSans-5f" x="213.818359"/>
     <use xlink:href="#DejaVuSans-32" x="263.818359"/>
     <use xlink:href="#DejaVuSans-39" x="327.441406"/>
     <use xlink:href="#DejaVuSans-36" x="391.064453"/>
     <use xlink:href="#DejaVuSans-32" x="454.6875"/>
     <use xlink:href="#DejaVuSans-31" x="518.310547"/>
     <use xlink:href="#DejaVuSans-32" x="581.933594"/>
    </g>
   </g>
   <g id="text_18">
    <!-- uvig_186352 -->
    <g transform="translate(47.209531 131.596875)scale(0.07 -0.07)">
     <use xlink:href="#DejaVuSans-75"/>
     <use xlink:href="#DejaVuSans-76" x="63.378906"/>
     <use xlink:href="#DejaVuSans-69" x="122.558594"/>
     <use xlink:href="#DejaVuSans-67" x="150.341797"/>
     <use xlink:href="#DejaVuSans-5f" x="213.818359"/>
     <use xlink:href="#DejaVuSans-31" x="263.818359"/>
     <use xlink:href="#DejaVuSans-38" x="327.441406"/>
     <use xlink:href="#DejaVuSans-36" x="391.064453"/>
     <use xlink:href="#DejaVuSans-33" x="454.6875"/>
     <use xlink:href="#DejaVuSans-35" x="518.310547"/>
     <use xlink:href="#DejaVuSans-32" x="581.933594"/>
    </g>
   </g>
   <g id="text_19">
    <!-- uvig_378623 -->
    <g transform="translate(47.209531 119.503125)scale(0.07 -0.07)">
     <use xlink:href="#DejaVuSans-75"/>
     <use xlink:href="#DejaVuSans-76" x="63.378906"/>
     <use xlink:href="#DejaVuSans-69" x="122.558594"/>
     <use xlink:href="#DejaVuSans-67" x="150.341797"/>
     <use xlink:href="#DejaVuSans-5f" x="213.818359"/>
     <use xlink:href="#DejaVuSans-33" x="263.818359"/>
     <use xlink:href="#DejaVuSans-37" x="327.441406"/>
     <use xlink:href="#DejaVuSans-38" x="391.064453"/>
     <use xlink:href="#DejaVuSans-36" x="454.6875"/>
     <use xlink:href="#DejaVuSans-32" x="518.310547"/>
     <use xlink:href="#DejaVuSans-33" x="581.933594"/>
    </g>
   </g>
   <g id="text_20">
    <!-- uvig_525660 -->
    <g transform="translate(47.209531 107.409375)scale(0.07 -0.07)">
     <use xlink:href="#DejaVuSans-75"/>
     <use xlink:href="#DejaVuSans-76" x="63.378906"/>
     <use xlink:href="#DejaVuSans-69" x="122.558594"/>
     <use xlink:href="#DejaVuSans-67" x="150.341797"/>
     <use xlink:href="#DejaVuSans-5f" x="213.818359"/>
     <use xlink:href="#DejaVuSans-35" x="263.818359"/>
     <use xlink:href="#DejaVuSans-32" x="327.441406"/>
     <use xlink:href="#DejaVuSans-35" x="391.064453"/>
     <use xlink:href="#DejaVuSans-36" x="454.6875"/>
     <use xlink:href="#DejaVuSans-36" x="518.310547"/>
     <use xlink:href="#DejaVuSans-30" x="581.933594"/>
    </g>
   </g>
   <g id="text_21">
    <!-- uvig_210196 -->
    <g transform="translate(47.209531 95.315625)scale(0.07 -0.07)">
     <use xlink:href="#DejaVuSans-75"/>
     <use xlink:href="#DejaVuSans-76" x="63.378906"/>
     <use xlink:href="#DejaVuSans-69" x="122.558594"/>
     <use xlink:href="#DejaVuSans-67" x="150.341797"/>
     <use xlink:href="#DejaVuSans-5f" x="213.818359"/>
     <use xlink:href="#DejaVuSans-32" x="263.818359"/>
     <use xlink:href="#DejaVuSans-31" x="327.441406"/>
     <use xlink:href="#DejaVuSans-30" x="391.064453"/>
     <use xlink:href="#DejaVuSans-31" x="454.6875"/>
     <use xlink:href="#DejaVuSans-39" x="518.310547"/>
     <use xlink:href="#DejaVuSans-36" x="581.933594"/>
    </g>
   </g>
   <g id="text_22">
    <!-- uvig_498906 -->
    <g transform="translate(47.209531 83.221875)scale(0.07 -0.07)">
     <use xlink:href="#DejaVuSans-75"/>
     <use xlink:href="#DejaVuSans-76" x="63.378906"/>
     <use xlink:href="#DejaVuSans-69" x="122.558594"/>
     <use xlink:href="#DejaVuSans-67" x="150.341797"/>
     <use xlink:href="#DejaVuSans-5f" x="213.818359"/>
     <use xlink:href="#DejaVuSans-34" x="263.818359"/>
     <use xlink:href="#DejaVuSans-39" x="327.441406"/>
     <use xlink:href="#DejaVuSans-38" x="391.064453"/>
     <use xlink:href="#DejaVuSans-39" x="454.6875"/>
     <use xlink:href="#DejaVuSans-30" x="518.310547"/>
     <use xlink:href="#DejaVuSans-36" x="581.933594"/>
    </g>
   </g>
   <g id="legend_1">
    <g id="patch_17">
     <path d="M 104.8 57.550312 
L 124.8 57.550312 
L 124.8 50.550312 
L 104.8 50.550312 
z
" style="fill: #ff0000; stroke: #000000; stroke-linejoin: miter"/>
    </g>
    <g id="text_23">
     <!-- NW -->
     <g transform="translate(132.8 57.550312)scale(0.1 -0.1)">
      <defs>
       <path id="DejaVuSans-4e" d="M 628 4666 
L 1478 4666 
L 3547 763 
L 3547 4666 
L 4159 4666 
L 4159 0 
L 3309 0 
L 1241 3903 
L 1241 0 
L 628 0 
L 628 4666 
z
" transform="scale(0.015625)"/>
       <path id="DejaVuSans-57" d="M 213 4666 
L 850 4666 
L 1831 722 
L 2809 4666 
L 3519 4666 
L 4500 722 
L 5478 4666 
L 6119 4666 
L 4947 0 
L 4153 0 
L 3169 4050 
L 2175 0 
L 1381 0 
L 213 4666 
z
" transform="scale(0.015625)"/>
      </defs>
      <use xlink:href="#DejaVuSans-4e"/>
      <use xlink:href="#DejaVuSans-57" x="74.804688"/>
     </g>
    </g>
    <g id="patch_18">
     <path d="M 170.16875 57.550312 
L 190.16875 57.550312 
L 190.16875 50.550312 
L 170.16875 50.550312 
z
" style="fill: #008000; stroke: #000000; stroke-linejoin: miter"/>
    </g>
    <g id="text_24">
     <!-- O -->
     <g transform="translate(198.16875 57.550312)scale(0.1 -0.1)">
      <use xlink:href="#DejaVuSans-4f"/>
     </g>
    </g>
    <g id="patch_19">
     <path d="M 226.040625 57.550312 
L 246.040625 57.550312 
L 246.040625 50.550312 
L 226.040625 50.550312 
z
" style="fill: #0000ff; stroke: #000000; stroke-linejoin: miter"/>
    </g>
    <g id="text_25">
     <!-- OMC -->
     <g transform="translate(254.040625 57.550312)scale(0.1 -0.1)">
      <defs>
       <path id="DejaVuSans-4d" d="M 628 4666 
L 1569 4666 
L 2759 1491 
L 3956 4666 
L 4897 4666 
L 4897 0 
L 4281 0 
L 4281 4097 
L 3078 897 
L 2444 897 
L 1241 4097 
L 1241 0 
L 628 0 
L 628 4666 
z
" transform="scale(0.015625)"/>
      </defs>
      <use xlink:href="#DejaVuSans-4f"/>
      <use xlink:href="#DejaVuSans-4d" x="78.710938"/>
      <use xlink:href="#DejaVuSans-43" x="164.990234"/>
     </g>
    </g>
   </g>
  </g>
 </g>
 <defs>
  <clipPath id="p0d0cb2da1f">
   <rect x="100.8" y="67.5" width="352.8" height="193.5"/>
  </clipPath>
 </defs>
</svg>
